<svg width="138" height="40" viewBox="0 0 138 40" fill="none" xmlns="http://www.w3.org/2000/svg">
<g filter="url(#filter0_dd_1163_147530)">
<rect x="6.5" y="6.75" width="125" height="27" rx="13.5" fill="#0070FF"/>
<rect x="6.5" y="6.75" width="125" height="27" rx="13.5" stroke="url(#paint0_linear_1163_147530)" stroke-linejoin="round"/>
</g>
<mask id="mask0_1163_147530" style="mask-type:alpha" maskUnits="userSpaceOnUse" x="6" y="6" width="127" height="28">
<rect x="6.5" y="6.75" width="126" height="27" rx="13.5" fill="#1F1F1F"/>
</mask>
<g mask="url(#mask0_1163_147530)">
<g filter="url(#filter1_f_1163_147530)">
<rect x="8.30005" y="8.75" width="122.4" height="22" rx="11" stroke="url(#paint1_linear_1163_147530)" stroke-linejoin="round"/>
</g>
</g>
<path d="M28.708 15.432H30.496V20.532C30.496 21.26 30.624 21.8 30.88 22.152C31.136 22.504 31.564 22.68 32.164 22.68C32.764 22.68 33.188 22.504 33.436 22.152C33.692 21.8 33.82 21.26 33.82 20.532V15.432H35.608V20.532C35.608 21.18 35.528 21.736 35.368 22.2C35.208 22.664 34.98 23.048 34.684 23.352C34.388 23.648 34.024 23.864 33.592 24C33.168 24.144 32.688 24.216 32.152 24.216C31.608 24.216 31.12 24.144 30.688 24C30.264 23.856 29.904 23.636 29.608 23.34C29.312 23.036 29.088 22.648 28.936 22.176C28.784 21.704 28.708 21.144 28.708 20.496V15.432ZM38.2763 22.008C38.3323 22.376 38.4803 22.616 38.7203 22.728C38.9603 22.84 39.2483 22.896 39.5843 22.896C39.9843 22.896 40.2683 22.848 40.4363 22.752C40.6123 22.648 40.7003 22.484 40.7003 22.26C40.7003 22.1 40.6443 21.96 40.5323 21.84C40.4283 21.72 40.2243 21.636 39.9203 21.588L39.0563 21.444C38.2963 21.324 37.7283 21.12 37.3523 20.832C36.9843 20.536 36.8003 20.092 36.8003 19.5C36.8003 19.196 36.8643 18.924 36.9923 18.684C37.1283 18.444 37.3163 18.24 37.5563 18.072C37.7963 17.904 38.0803 17.776 38.4083 17.688C38.7443 17.592 39.1123 17.544 39.5123 17.544C40.0083 17.544 40.4243 17.596 40.7603 17.7C41.0963 17.796 41.3683 17.928 41.5763 18.096C41.7923 18.264 41.9523 18.464 42.0563 18.696C42.1683 18.928 42.2483 19.176 42.2963 19.44L40.7963 19.632C40.7243 19.344 40.5963 19.132 40.4123 18.996C40.2363 18.86 39.9483 18.792 39.5483 18.792C39.3243 18.792 39.1363 18.812 38.9843 18.852C38.8403 18.884 38.7243 18.928 38.6363 18.984C38.5563 19.04 38.4963 19.104 38.4563 19.176C38.4243 19.248 38.4083 19.316 38.4083 19.38C38.4083 19.58 38.4683 19.728 38.5883 19.824C38.7163 19.912 38.9603 19.988 39.3203 20.052L40.1123 20.184C40.5523 20.256 40.9163 20.348 41.2043 20.46C41.4923 20.572 41.7203 20.712 41.8883 20.88C42.0643 21.04 42.1843 21.232 42.2483 21.456C42.3203 21.68 42.3563 21.94 42.3563 22.236C42.3563 22.828 42.1323 23.304 41.6843 23.664C41.2363 24.016 40.5443 24.192 39.6083 24.192C39.2323 24.192 38.8723 24.156 38.5283 24.084C38.1923 24.02 37.8883 23.904 37.6163 23.736C37.3523 23.568 37.1323 23.344 36.9563 23.064C36.7883 22.784 36.6923 22.432 36.6683 22.008H38.2763ZM49.2456 22.044C49.1336 22.748 48.8496 23.284 48.3936 23.652C47.9456 24.012 47.2896 24.192 46.4256 24.192C45.3856 24.192 44.6016 23.904 44.0736 23.328C43.5536 22.752 43.2936 21.936 43.2936 20.88C43.2936 20.352 43.3696 19.884 43.5216 19.476C43.6736 19.06 43.8856 18.708 44.1576 18.42C44.4376 18.132 44.7696 17.916 45.1536 17.772C45.5376 17.62 45.9616 17.544 46.4256 17.544C47.3856 17.544 48.1056 17.82 48.5856 18.372C49.0736 18.924 49.3176 19.668 49.3176 20.604V21.276H44.9736C44.9896 21.78 45.1176 22.176 45.3576 22.464C45.5976 22.744 45.9576 22.884 46.4376 22.884C47.1016 22.884 47.4936 22.604 47.6136 22.044H49.2456ZM47.6976 20.172C47.6976 19.74 47.5896 19.404 47.3736 19.164C47.1656 18.924 46.8376 18.804 46.3896 18.804C46.1656 18.804 45.9696 18.84 45.8016 18.912C45.6336 18.984 45.4896 19.084 45.3696 19.212C45.2576 19.332 45.1696 19.476 45.1056 19.644C45.0416 19.804 45.0056 19.98 44.9976 20.172H47.6976ZM60.6882 21.036C60.6482 21.492 60.5402 21.916 60.3642 22.308C60.1962 22.692 59.9602 23.028 59.6562 23.316C59.3602 23.596 58.9922 23.816 58.5522 23.976C58.1202 24.136 57.6162 24.216 57.0402 24.216C56.3922 24.216 55.8202 24.108 55.3242 23.892C54.8362 23.676 54.4242 23.372 54.0882 22.98C53.7602 22.588 53.5122 22.116 53.3442 21.564C53.1762 21.004 53.0922 20.388 53.0922 19.716C53.0922 19.02 53.1842 18.396 53.3682 17.844C53.5522 17.292 53.8162 16.82 54.1602 16.428C54.5042 16.036 54.9202 15.736 55.4082 15.528C55.8962 15.32 56.4482 15.216 57.0642 15.216C57.6082 15.216 58.0802 15.284 58.4802 15.42C58.8882 15.556 59.2282 15.752 59.5002 16.008C59.7802 16.264 60.0042 16.572 60.1722 16.932C60.3402 17.292 60.4642 17.696 60.5442 18.144L58.7682 18.372C58.6802 17.868 58.5082 17.472 58.2522 17.184C58.0042 16.896 57.6082 16.752 57.0642 16.752C56.3762 16.752 55.8522 17.012 55.4922 17.532C55.1402 18.044 54.9642 18.772 54.9642 19.716C54.9642 20.668 55.1522 21.4 55.5282 21.912C55.9122 22.424 56.4242 22.68 57.0642 22.68C57.6162 22.68 58.0202 22.54 58.2762 22.26C58.5402 21.972 58.7042 21.564 58.7682 21.036H60.6882ZM65.5109 23.208C65.2629 23.488 64.9829 23.716 64.6709 23.892C64.3669 24.068 63.9709 24.156 63.4829 24.156C63.2029 24.156 62.9349 24.12 62.6789 24.048C62.4309 23.976 62.2109 23.864 62.0189 23.712C61.8349 23.56 61.6869 23.368 61.5749 23.136C61.4629 22.896 61.4069 22.612 61.4069 22.284C61.4069 21.852 61.5029 21.5 61.6949 21.228C61.8869 20.956 62.1389 20.744 62.4509 20.592C62.7629 20.44 63.1109 20.332 63.4949 20.268C63.8869 20.204 64.2829 20.164 64.6829 20.148L65.4869 20.112V19.8C65.4869 19.416 65.3789 19.152 65.1629 19.008C64.9549 18.864 64.7069 18.792 64.4189 18.792C63.7549 18.792 63.3749 19.044 63.2789 19.548L61.7429 19.404C61.8549 18.748 62.1429 18.276 62.6069 17.988C63.0709 17.692 63.6949 17.544 64.4789 17.544C64.9589 17.544 65.3669 17.604 65.7029 17.724C66.0389 17.836 66.3069 18 66.5069 18.216C66.7149 18.432 66.8629 18.696 66.9509 19.008C67.0469 19.312 67.0949 19.656 67.0949 20.04V24H65.5109V23.208ZM65.4749 21.204L64.7309 21.24C64.3789 21.256 64.0949 21.292 63.8789 21.348C63.6629 21.404 63.4949 21.476 63.3749 21.564C63.2629 21.644 63.1869 21.74 63.1469 21.852C63.1069 21.964 63.0869 22.088 63.0869 22.224C63.0869 22.432 63.1589 22.596 63.3029 22.716C63.4469 22.836 63.6469 22.896 63.9029 22.896C64.3349 22.896 64.6869 22.796 64.9589 22.596C65.1109 22.484 65.2349 22.344 65.3309 22.176C65.4269 22 65.4749 21.784 65.4749 21.528V21.204ZM68.5294 15.432H70.2094V24H68.5294V15.432ZM77.3329 21.732C77.2689 22.484 77.0089 23.084 76.5529 23.532C76.1049 23.972 75.4289 24.192 74.5249 24.192C73.9969 24.192 73.5409 24.112 73.1569 23.952C72.7729 23.792 72.4569 23.568 72.2089 23.28C71.9689 22.992 71.7889 22.644 71.6689 22.236C71.5489 21.828 71.4889 21.376 71.4889 20.88C71.4889 20.384 71.5569 19.932 71.6929 19.524C71.8369 19.108 72.0409 18.756 72.3049 18.468C72.5689 18.172 72.8929 17.944 73.2769 17.784C73.6609 17.624 74.1009 17.544 74.5969 17.544C75.0209 17.544 75.3889 17.6 75.7009 17.712C76.0209 17.816 76.2889 17.964 76.5049 18.156C76.7209 18.348 76.8889 18.58 77.0089 18.852C77.1289 19.116 77.2089 19.408 77.2489 19.728L75.5569 19.956C75.5169 19.636 75.4249 19.38 75.2809 19.188C75.1369 18.988 74.8889 18.888 74.5369 18.888C74.2809 18.888 74.0689 18.944 73.9009 19.056C73.7329 19.16 73.5969 19.304 73.4929 19.488C73.3969 19.672 73.3289 19.884 73.2889 20.124C73.2489 20.356 73.2289 20.6 73.2289 20.856C73.2289 21.12 73.2489 21.372 73.2889 21.612C73.3289 21.852 73.3969 22.064 73.4929 22.248C73.5889 22.432 73.7209 22.58 73.8889 22.692C74.0569 22.796 74.2689 22.848 74.5249 22.848C74.8609 22.848 75.1209 22.752 75.3049 22.56C75.4889 22.368 75.5969 22.092 75.6289 21.732H77.3329ZM78.477 17.736H80.157V21.648C80.157 22.096 80.237 22.4 80.397 22.56C80.557 22.712 80.777 22.788 81.057 22.788C81.273 22.788 81.449 22.756 81.585 22.692C81.729 22.628 81.865 22.536 81.993 22.416C82.121 22.304 82.221 22.172 82.293 22.02C82.373 21.86 82.413 21.688 82.413 21.504V17.736H84.093V24H82.461V23.136C82.205 23.504 81.913 23.772 81.585 23.94C81.265 24.108 80.921 24.192 80.553 24.192C79.841 24.192 79.317 24.008 78.981 23.64C78.645 23.264 78.477 22.676 78.477 21.876V17.736ZM85.5919 15.432H87.2719V24H85.5919V15.432ZM92.4874 23.208C92.2394 23.488 91.9594 23.716 91.6474 23.892C91.3434 24.068 90.9474 24.156 90.4594 24.156C90.1794 24.156 89.9114 24.12 89.6554 24.048C89.4074 23.976 89.1874 23.864 88.9954 23.712C88.8114 23.56 88.6634 23.368 88.5514 23.136C88.4394 22.896 88.3834 22.612 88.3834 22.284C88.3834 21.852 88.4794 21.5 88.6714 21.228C88.8634 20.956 89.1154 20.744 89.4274 20.592C89.7394 20.44 90.0874 20.332 90.4714 20.268C90.8634 20.204 91.2594 20.164 91.6594 20.148L92.4634 20.112V19.8C92.4634 19.416 92.3554 19.152 92.1394 19.008C91.9314 18.864 91.6834 18.792 91.3954 18.792C90.7314 18.792 90.3514 19.044 90.2554 19.548L88.7194 19.404C88.8314 18.748 89.1194 18.276 89.5834 17.988C90.0474 17.692 90.6714 17.544 91.4554 17.544C91.9354 17.544 92.3434 17.604 92.6794 17.724C93.0154 17.836 93.2834 18 93.4834 18.216C93.6914 18.432 93.8394 18.696 93.9274 19.008C94.0234 19.312 94.0714 19.656 94.0714 20.04V24H92.4874V23.208ZM92.4514 21.204L91.7074 21.24C91.3554 21.256 91.0714 21.292 90.8554 21.348C90.6394 21.404 90.4714 21.476 90.3514 21.564C90.2394 21.644 90.1634 21.74 90.1234 21.852C90.0834 21.964 90.0634 22.088 90.0634 22.224C90.0634 22.432 90.1354 22.596 90.2794 22.716C90.4234 22.836 90.6234 22.896 90.8794 22.896C91.3114 22.896 91.6634 22.796 91.9354 22.596C92.0874 22.484 92.2114 22.344 92.3074 22.176C92.4034 22 92.4514 21.784 92.4514 21.528V21.204ZM95.878 19.044H94.894V17.736H95.878V16.068H97.558V17.736H98.998V19.044H97.558V21.936C97.558 22.264 97.626 22.488 97.762 22.608C97.898 22.72 98.074 22.776 98.29 22.776C98.402 22.776 98.514 22.772 98.626 22.764C98.746 22.748 98.862 22.724 98.974 22.692L99.214 23.928C98.982 24 98.754 24.048 98.53 24.072C98.314 24.104 98.106 24.12 97.906 24.12C97.218 24.12 96.706 23.956 96.37 23.628C96.042 23.3 95.878 22.748 95.878 21.972V19.044ZM102.876 24.192C101.868 24.192 101.088 23.904 100.536 23.328C99.9837 22.752 99.7077 21.928 99.7077 20.856C99.7077 20.344 99.7797 19.884 99.9237 19.476C100.076 19.06 100.288 18.712 100.56 18.432C100.84 18.144 101.176 17.924 101.568 17.772C101.96 17.62 102.396 17.544 102.876 17.544C103.364 17.544 103.804 17.62 104.196 17.772C104.588 17.924 104.92 18.144 105.192 18.432C105.472 18.712 105.684 19.06 105.828 19.476C105.972 19.884 106.044 20.344 106.044 20.856C106.044 21.376 105.968 21.844 105.816 22.26C105.672 22.668 105.46 23.016 105.18 23.304C104.908 23.592 104.576 23.812 104.184 23.964C103.792 24.116 103.356 24.192 102.876 24.192ZM102.876 22.848C103.356 22.848 103.712 22.676 103.944 22.332C104.184 21.988 104.304 21.496 104.304 20.856C104.304 20.216 104.184 19.728 103.944 19.392C103.712 19.056 103.356 18.888 102.876 18.888C102.396 18.888 102.036 19.056 101.796 19.392C101.564 19.728 101.448 20.216 101.448 20.856C101.448 21.504 101.564 22 101.796 22.344C102.028 22.68 102.388 22.848 102.876 22.848ZM107.318 17.736H108.95V18.612C109.158 18.284 109.41 18.04 109.706 17.88C110.002 17.712 110.314 17.628 110.642 17.628C110.802 17.628 110.934 17.636 111.038 17.652C111.142 17.66 111.234 17.672 111.314 17.688L111.11 19.212C110.918 19.164 110.682 19.14 110.402 19.14C110.218 19.14 110.042 19.164 109.874 19.212C109.706 19.252 109.554 19.332 109.418 19.452C109.274 19.58 109.166 19.724 109.094 19.884C109.03 20.044 108.998 20.208 108.998 20.376V24H107.318V17.736Z" fill="white"/>
<defs>
<filter id="filter0_dd_1163_147530" x="0.270162" y="0.520162" width="137.46" height="39.4597" filterUnits="userSpaceOnUse" color-interpolation-filters="sRGB">
<feFlood flood-opacity="0" result="BackgroundImageFix"/>
<feColorMatrix in="SourceAlpha" type="matrix" values="0 0 0 0 0 0 0 0 0 0 0 0 0 0 0 0 0 0 127 0" result="hardAlpha"/>
<feOffset dx="1.90995" dy="1.90995"/>
<feGaussianBlur stdDeviation="1.90995"/>
<feComposite in2="hardAlpha" operator="out"/>
<feColorMatrix type="matrix" values="0 0 0 0 0 0 0 0 0 0 0 0 0 0 0 0 0 0 0.25 0"/>
<feBlend mode="overlay" in2="BackgroundImageFix" result="effect1_dropShadow_1163_147530"/>
<feColorMatrix in="SourceAlpha" type="matrix" values="0 0 0 0 0 0 0 0 0 0 0 0 0 0 0 0 0 0 127 0" result="hardAlpha"/>
<feOffset dx="-1.90995" dy="-1.90995"/>
<feGaussianBlur stdDeviation="1.90995"/>
<feComposite in2="hardAlpha" operator="out"/>
<feColorMatrix type="matrix" values="0 0 0 0 1 0 0 0 0 1 0 0 0 0 1 0 0 0 0.25 0"/>
<feBlend mode="overlay" in2="effect1_dropShadow_1163_147530" result="effect2_dropShadow_1163_147530"/>
<feBlend mode="normal" in="SourceGraphic" in2="effect2_dropShadow_1163_147530" result="shape"/>
</filter>
<filter id="filter1_f_1163_147530" x="3.80005" y="4.25" width="131.4" height="31" filterUnits="userSpaceOnUse" color-interpolation-filters="sRGB">
<feFlood flood-opacity="0" result="BackgroundImageFix"/>
<feBlend mode="normal" in="SourceGraphic" in2="BackgroundImageFix" result="shape"/>
<feGaussianBlur stdDeviation="2" result="effect1_foregroundBlur_1163_147530"/>
</filter>
<linearGradient id="paint0_linear_1163_147530" x1="47.8647" y1="43.6765" x2="31.378" y2="-22.8392" gradientUnits="userSpaceOnUse">
<stop stop-color="#1F1F1F"/>
<stop offset="1" stop-color="#F0EDE4"/>
</linearGradient>
<linearGradient id="paint1_linear_1163_147530" x1="48.8044" y1="38.8382" x2="37.4234" y2="-16.3421" gradientUnits="userSpaceOnUse">
<stop offset="0.135417" stop-color="#1F1F1F"/>
<stop offset="1" stop-color="#F0EDE4"/>
</linearGradient>
</defs>
</svg>
